<svg xmlns="http://www.w3.org/2000/svg" width="2000" height="700" version="1.0" viewBox="0 0 1500 525"><defs><clipPath id="a"><path d="M1.426 0h1497.148v524H1.426Zm0 0"/></clipPath><clipPath id="b"><path d="M76.285 0h1347.43a74.856 74.856 0 0 1 74.86 74.86v374.285a74.863 74.863 0 0 1-21.927 52.933A74.869 74.869 0 0 1 1423.715 524H76.285a74.869 74.869 0 0 1-52.933-21.922 74.863 74.863 0 0 1-21.926-52.933V74.859A74.856 74.856 0 0 1 76.286 0Zm0 0"/></clipPath><clipPath id="d"><path d="M.426 0H1497v524H.426Zm0 0"/></clipPath><clipPath id="e"><path d="M75.285 0h1347.43a74.856 74.856 0 0 1 74.86 74.86v374.285a74.863 74.863 0 0 1-21.927 52.933A74.869 74.869 0 0 1 1422.715 524H75.285a74.869 74.869 0 0 1-52.933-21.922A74.863 74.863 0 0 1 .426 449.145V74.859A74.856 74.856 0 0 1 75.286 0Zm0 0"/></clipPath><clipPath id="c"><path d="M0 0h1498v524H0z"/></clipPath><clipPath id="f"><path d="M0 0h1385v455H0z"/></clipPath></defs><g clip-path="url(#a)"><g clip-path="url(#b)"><g clip-path="url(#c)" transform="translate(1)"><g clip-path="url(#d)"><g clip-path="url(#e)"><path fill="#f1f0ea" d="M.426 0h1496.27v524H.425Zm0 0"/></g></g></g></g></g><g fill="#474448" clip-path="url(#f)" transform="translate(49 34)"><path d="M35.009 302.758C17.54 283.72 8.806 260.368 8.806 232.711c0-27.664 8.734-51.082 26.203-70.25 17.469-19.164 39.664-28.75 66.594-28.75 24.75 0 45.129 7.766 61.14 23.297V139.18h64.407v186.687h-63.688v-21.109h-.719c-16.011 17.711-36.39 26.563-61.14 26.563-26.93 0-49.125-9.52-66.594-28.563Zm54.75-101.719c-8.367 8.25-12.547 18.809-12.547 31.672 0 12.856 4.004 23.344 12.016 31.469 8.008 8.125 18.562 12.187 31.656 12.187 12.613 0 22.984-4.117 31.11-12.359 8.132-8.25 12.202-18.68 12.202-31.297 0-12.863-4.187-23.422-12.562-31.672-8.367-8.25-18.617-12.375-30.75-12.375-12.375 0-22.75 4.125-31.125 12.375Zm376.123-61.859-88.797 89.156 97.531 97.531h-82.969l-74.609-74.609v74.61h-64.422V12.897h64.422V204.32l65.14-65.141Zm0 0"/><path d="M469.509 325.867V139.18h64.421v26.922h.735c.476-.969 1.265-2.176 2.36-3.625 1.093-1.457 3.456-4.004 7.093-7.64a87.916 87.916 0 0 1 11.64-9.829c4.126-2.914 9.461-5.523 16.016-7.828 6.55-2.313 13.223-3.469 20.016-3.469 7.039 0 13.957.977 20.75 2.922 6.789 1.938 11.765 3.875 14.922 5.813l5.093 2.921-26.937 54.579c-8-6.79-19.156-10.188-33.469-10.188-7.773 0-14.45 1.7-20.031 5.094-5.574 3.398-9.516 7.523-11.828 12.375-2.305 4.855-3.938 8.98-4.906 12.375-.97 3.398-1.454 6.062-1.454 8v98.265Zm175.783-23.109c-17.47-19.039-26.204-42.39-26.204-70.047 0-27.664 8.735-51.082 26.204-70.25 17.468-19.164 39.664-28.75 66.593-28.75 24.75 0 45.13 7.766 61.14 23.297V139.18h64.407v186.687h-63.687v-21.109h-.72c-16.01 17.711-36.39 26.563-61.14 26.563-26.93 0-49.125-9.52-66.593-28.563Zm54.75-101.719c-8.368 8.25-12.547 18.809-12.547 31.672 0 12.856 4.004 23.344 12.015 31.469 8.008 8.125 18.563 12.187 31.657 12.187 12.613 0 22.984-4.117 31.109-12.359 8.133-8.25 12.203-18.68 12.203-31.297 0-12.863-4.187-23.422-12.562-31.672-8.368-8.25-18.618-12.375-30.75-12.375-12.375 0-22.75 4.125-31.125 12.375Zm0 0"/><path d="m910.211 139.18 45.5 101.531 45.485-101.531h76.421L977.54 325.867h-43.672L833.79 139.18Zm181.414 164.484c-20.742-18.437-31.11-42.086-31.11-70.953 0-28.875 10.79-52.594 32.375-71.156 21.594-18.563 48.286-27.844 80.078-27.844 31.29 0 57.672 9.344 79.141 28.031 21.477 18.68 32.219 42.336 32.219 70.97 0 28.624-10.496 52.218-31.485 70.78-20.992 18.555-47.617 27.829-79.875 27.829-33.492 0-60.605-9.22-81.343-27.657Zm49.843-102.625c-8.367 8.25-12.546 18.809-12.546 31.672 0 12.856 4.004 23.344 12.015 31.469 8.008 8.125 18.563 12.187 31.656 12.187 12.614 0 22.985-4.117 31.11-12.359 8.133-8.25 12.203-18.68 12.203-31.297 0-12.863-4.188-23.422-12.563-31.672-8.367-8.25-18.617-12.375-30.75-12.375-12.375 0-22.75 4.125-31.125 12.375Zm196.352 46.953c11.644 0 21.53 4.063 29.656 12.188 8.125 8.125 12.187 18.012 12.187 29.656 0 11.406-4.062 21.172-12.187 29.297s-18.012 12.188-29.657 12.188c-11.406 0-21.18-4.063-29.312-12.188-8.125-8.125-12.188-17.89-12.188-29.297 0-11.644 4.063-21.531 12.188-29.656 8.133-8.125 17.906-12.188 29.312-12.188Zm0 0"/></g></svg>