<svg xmlns="http://www.w3.org/2000/svg" xmlns:xlink="http://www.w3.org/1999/xlink" viewBox="0 0 38 35" overflow="visible"><g><path d="M 27.585 0 L 34.488 0 L 34.488 7 L 27.585 7 Z" fill="rgb(255, 255, 255)"></path><path d="M 31.07 0 L 37.973 0 L 37.973 7 L 31.07 7 Z" fill="rgb(255, 255, 255)"></path><path d="M 0 0 L 6.903 0 L 6.903 7 L 0 7 Z M 0 7 L 6.903 7 L 6.903 14 L 0 14 Z M 0 14 L 6.903 14 L 6.903 21 L 0 21 Z M 0 21 L 6.903 21 L 6.903 28 L 0 28 Z M 0 28 L 6.903 28 L 6.903 35 L 0 35 Z" fill="rgb(255, 255, 255)"></path><path d="M 3.485 0 L 10.388 0 L 10.388 7 L 3.485 7 Z" fill="rgb(255, 255, 255)"></path><path d="M 31.097 6.993 L 38 6.993 L 38 13.993 L 31.097 13.993 Z M 3.485 6.993 L 10.388 6.993 L 10.388 13.993 L 3.485 13.993 Z" fill="rgb(255, 255, 255)"></path><path d="M 20.689 6.993 L 27.592 6.993 L 27.592 13.993 L 20.689 13.993 Z" fill="rgb(255, 255, 255)"></path><path d="M 24.187 6.993 L 31.09 6.993 L 31.09 13.993 L 24.187 13.993 Z M 10.381 6.993 L 17.284 6.993 L 17.284 13.993 L 10.381 13.993 Z" fill="rgb(255, 255, 255)"></path><path d="M 17.284 13.986 L 24.187 13.986 L 24.187 20.986 L 17.284 20.986 Z M 24.187 13.986 L 31.09 13.986 L 31.09 20.986 L 24.187 20.986 Z M 10.381 13.986 L 17.284 13.986 L 17.284 20.986 L 10.381 20.986 Z" fill="rgb(255, 255, 255)"></path><path d="M 13.792 20.98 L 20.695 20.98 L 20.695 27.979 L 13.792 27.979 Z" fill="rgb(255, 255, 255)"></path><path d="M 17.278 20.98 L 24.181 20.98 L 24.181 27.979 L 17.278 27.979 Z" fill="rgb(255, 255, 255)"></path><path d="M 31.097 13.986 L 38 13.986 L 38 20.986 L 31.097 20.986 Z M 3.485 13.986 L 10.388 13.986 L 10.388 20.986 L 3.485 20.986 Z" fill="rgb(255, 255, 255)"></path><path d="M 27.585 20.98 L 34.488 20.98 L 34.488 27.979 L 27.585 27.979 Z" fill="rgb(255, 255, 255)"></path><path d="M 31.07 20.98 L 37.973 20.98 L 37.973 27.979 L 31.07 27.979 Z" fill="rgb(255, 255, 255)"></path><path d="M 27.585 27.973 L 34.488 27.973 L 34.488 34.973 L 27.585 34.973 Z" fill="rgb(255, 255, 255)"></path><path d="M 3.485 20.98 L 10.388 20.98 L 10.388 27.979 L 3.485 27.979 Z" fill="rgb(255, 255, 255)"></path><path d="M 31.097 27.973 L 38 27.973 L 38 34.973 L 31.097 34.973 Z M 3.485 27.973 L 10.388 27.973 L 10.388 34.973 L 3.485 34.973 Z" fill="rgb(255, 255, 255)"></path></g></svg>