<svg xmlns="http://www.w3.org/2000/svg" xmlns:xlink="http://www.w3.org/1999/xlink" viewBox="0 0 150.237 40" overflow="visible"><g><path d="M 23.221 1.553 L 13.662 12.113 L 23.221 12.113 L 23.221 1.553 L 23.221 4.444 Z M 13.661 12.113 L 4.101 1.553 L 4.101 12.113 Z M 13.64 0 L 13.64 40 M 23.221 22.671 L 13.662 12.111 L 13.662 27.25 L 23.221 37.81 Z M 4.102 22.671 L 13.662 12.111 L 13.662 27.25 L 4.102 37.81 Z M 0 12.111 L 0 27.189 L 4.101 27.189 L 4.101 22.671 L 13.661 12.111 Z M 13.661 12.111 L 23.22 22.671 L 23.22 27.189 L 27.322 27.189 L 27.322 12.111 Z" fill="transparent" stroke-width="1.01" stroke="rgb(255, 255, 255)" stroke-miterlimit="10" stroke-dasharray=""></path><path d="M 55.245 14.367 C 55.812 13.169 56.683 12.179 57.753 11.518 C 58.827 10.853 60.087 10.52 61.533 10.52 C 62.978 10.52 64.175 10.847 65.177 11.504 C 66.18 12.161 66.93 13.031 67.426 14.114 C 67.922 15.198 68.171 16.386 68.171 17.677 L 68.171 19.466 L 56.925 19.466 C 57.016 21.017 57.49 22.251 58.348 23.165 C 59.205 24.081 60.357 24.537 61.804 24.537 C 62.977 24.537 63.877 24.274 64.5 23.747 C 65.124 23.221 65.579 22.491 65.869 21.555 L 68.444 21.555 C 68.101 23.006 67.401 24.265 66.344 25.328 C 65.288 26.393 63.774 26.924 61.805 26.924 C 60.323 26.924 59.017 26.591 57.887 25.925 C 56.779 25.282 55.869 24.291 55.272 23.076 C 54.658 21.843 54.351 20.392 54.351 18.721 C 54.351 17.05 54.649 15.6 55.246 14.366 L 55.245 14.366 Z M 65.462 17.23 C 65.462 15.877 65.146 14.82 64.514 14.053 C 63.881 13.287 62.888 12.905 61.532 12.905 C 60.267 12.905 59.232 13.277 58.429 14.023 C 57.625 14.768 57.132 15.838 56.952 17.23 Z M 71.55 10.966 L 71.55 13.442 C 71.55 13.582 71.613 13.651 71.74 13.651 C 71.812 13.651 71.866 13.631 71.903 13.591 C 71.954 13.521 71.991 13.44 72.011 13.353 C 72.48 11.723 73.646 10.907 75.507 10.907 L 76.699 10.907 L 76.699 13.591 L 75.154 13.591 C 73.942 13.591 73.039 13.908 72.442 14.545 C 71.846 15.182 71.548 16.225 71.548 17.677 L 71.548 26.476 L 69.108 26.476 L 69.108 10.965 L 71.55 10.965 Z M 91.021 23.21 C 90.38 24.452 89.549 25.382 88.528 25.997 C 87.519 26.61 86.386 26.928 85.235 26.922 C 82.922 26.922 81.296 25.908 80.356 23.88 C 80.284 23.722 80.193 23.642 80.085 23.642 C 79.978 23.642 79.922 23.702 79.922 23.821 L 79.922 32.142 L 77.483 32.142 L 77.483 10.967 L 79.922 10.967 L 79.922 13.622 C 79.922 13.741 79.977 13.801 80.085 13.801 C 80.194 13.801 80.284 13.721 80.356 13.563 C 81.296 11.534 82.922 10.521 85.235 10.521 C 86.409 10.521 87.507 10.83 88.528 11.445 C 89.549 12.061 90.379 12.991 91.021 14.234 C 91.663 15.476 91.984 16.974 91.984 18.722 C 91.984 20.47 91.663 21.967 91.021 23.211 Z M 88.203 14.441 C 87.308 13.416 86.129 12.904 84.666 12.904 C 83.203 12.904 82.023 13.416 81.129 14.441 C 80.234 15.465 79.906 16.892 79.906 18.721 C 79.906 20.55 80.234 21.977 81.129 23.001 C 82.024 24.025 83.203 24.537 84.666 24.537 C 86.129 24.537 87.309 24.026 88.203 23.001 C 89.098 21.976 89.545 20.55 89.545 18.721 C 89.545 16.892 89.098 15.465 88.203 14.441 Z M 95.523 5.001 L 95.523 26.475 L 93.084 26.475 L 93.084 5.003 L 95.523 5.003 Z M 97.532 14.366 C 98.099 13.167 98.97 12.177 100.039 11.517 C 101.114 10.852 102.374 10.518 103.819 10.518 C 105.263 10.518 106.462 10.846 107.464 11.503 C 108.467 12.16 109.217 13.03 109.713 14.113 C 110.21 15.197 110.458 16.385 110.458 17.676 L 110.458 19.465 L 99.212 19.465 C 99.303 21.016 99.777 22.25 100.634 23.164 C 101.492 24.08 102.644 24.536 104.09 24.536 C 105.264 24.536 106.163 24.273 106.786 23.746 C 107.411 23.22 107.866 22.49 108.156 21.554 L 110.731 21.554 C 110.387 23.005 109.687 24.264 108.631 25.327 C 107.575 26.392 106.061 26.923 104.091 26.923 C 102.61 26.923 101.304 26.59 100.174 25.924 C 99.066 25.281 98.156 24.29 97.559 23.075 C 96.945 21.842 96.638 20.391 96.638 18.72 C 96.638 17.048 96.936 15.598 97.533 14.365 L 97.532 14.365 Z M 107.749 17.228 C 107.749 15.876 107.433 14.818 106.801 14.052 C 106.168 13.286 105.175 12.904 103.819 12.904 C 102.555 12.904 101.519 13.276 100.716 14.022 C 99.912 14.767 99.42 15.837 99.239 17.228 Z M 109.373 25.878 L 114.955 18.272 L 110.375 11.562 L 110.375 10.965 L 113.058 10.965 L 116.881 16.751 L 121 10.965 L 123.736 10.965 L 123.736 11.592 L 118.479 18.721 L 123.331 25.878 L 123.331 26.475 L 120.702 26.475 L 116.556 20.242 L 112.112 26.475 L 109.375 26.475 L 109.375 25.878 Z M 127.278 5.917 L 127.278 9.274 L 124.429 9.274 L 124.429 5.917 Z M 127.13 26.476 L 124.69 26.476 L 124.69 10.966 L 127.13 10.966 Z M 127.899 10.966 L 130.553 10.966 L 130.553 6.791 L 132.993 6.791 L 132.993 10.966 L 135.786 10.966 L 136.471 13.24 L 132.993 13.24 L 132.993 20.66 C 132.993 21.673 132.97 22.424 132.925 22.912 C 132.879 23.4 132.857 23.693 132.857 23.792 C 132.857 23.932 132.892 24.041 132.965 24.12 C 133.046 24.203 133.154 24.246 133.264 24.238 C 133.354 24.238 133.62 24.214 134.063 24.164 C 134.505 24.114 135.188 24.09 136.11 24.09 L 137.058 24.09 L 137.058 26.475 L 135.162 26.475 C 133.607 26.475 132.451 26.058 131.692 25.222 C 130.934 24.386 130.554 23.115 130.554 21.404 L 130.554 13.238 L 127.901 13.238 L 127.901 10.965 L 127.899 10.965 Z M 136.521 10.966 L 139.007 10.966 L 143.045 23.978 C 143.101 24.138 143.186 24.348 143.463 24.348 C 143.74 24.348 143.825 24.137 143.88 23.978 L 147.918 10.966 L 150.237 10.966 L 150.237 11.563 L 145.185 28.295 C 144.752 29.727 144.142 30.726 143.357 31.293 C 142.571 31.86 141.658 32.143 140.139 32.143 L 137.537 32.143 L 137.537 29.757 L 139.517 29.757 C 140.149 29.757 140.663 29.782 141.061 29.832 C 141.458 29.882 141.711 29.906 141.82 29.906 C 142.127 29.906 142.334 29.757 142.444 29.46 L 143.203 27.193 C 143.294 26.955 143.302 26.776 143.23 26.655 C 143.194 26.575 143.15 26.525 143.096 26.506 C 143.016 26.483 142.934 26.473 142.852 26.476 L 141.199 26.476 L 136.523 10.967 L 136.521 10.967 Z M 52.801 23.235 C 52.159 24.477 51.328 25.407 50.307 26.023 C 49.298 26.635 48.165 26.953 47.014 26.947 C 44.702 26.947 43.075 25.934 42.135 23.905 C 42.063 23.747 41.972 23.667 41.865 23.667 C 41.757 23.667 41.702 23.727 41.702 23.846 L 41.702 32.167 L 39.262 32.167 L 39.262 10.993 L 41.702 10.993 L 41.702 13.647 C 41.702 13.766 41.756 13.826 41.865 13.826 C 41.973 13.826 42.063 13.746 42.135 13.588 C 43.074 11.56 44.702 10.546 47.014 10.546 C 48.188 10.546 49.286 10.855 50.307 11.471 C 51.328 12.086 52.158 13.016 52.801 14.258 C 53.442 15.501 53.763 16.998 53.763 18.747 C 53.763 20.496 53.442 21.993 52.801 23.235 Z M 49.982 14.466 C 49.087 13.442 47.908 12.93 46.445 12.93 C 44.982 12.93 43.803 13.442 42.909 14.466 C 42.014 15.491 41.685 16.917 41.685 18.746 C 41.685 20.575 42.014 22.003 42.909 23.026 C 43.804 24.051 44.982 24.563 46.445 24.563 C 47.908 24.563 49.088 24.052 49.982 23.026 C 50.877 22.002 51.324 20.575 51.324 18.746 C 51.324 16.917 50.877 15.491 49.982 14.466 Z" fill="rgb(255, 255, 255)"></path></g></svg>