<svg xmlns="http://www.w3.org/2000/svg" xmlns:xlink="http://www.w3.org/1999/xlink" viewBox="0 0 148 43" overflow="visible"><g><path d="M 142.56 32.623 L 143.871 22.704 C 143.896 22.511 143.92 22.343 143.92 22.15 L 143.92 21.259 C 143.92 20.128 143.653 19.261 143.094 18.683 C 142.536 18.081 141.734 17.768 140.69 17.768 C 139.038 17.768 137.751 18.298 136.828 19.357 C 135.905 20.392 135.298 22.006 135.007 24.172 L 133.914 32.647 L 129.955 32.647 L 132.263 15.385 L 136.075 15.385 L 135.784 17.455 C 136.78 16.54 137.824 15.866 138.893 15.433 C 139.986 14.999 141.151 14.759 142.317 14.783 C 144.114 14.783 145.499 15.24 146.494 16.179 C 147.49 17.094 148 18.394 148 20.079 C 148 21.765 147.976 20.994 147.927 21.572 C 147.879 22.126 147.806 22.776 147.709 23.546 L 146.494 32.647 L 142.536 32.647 Z M 122.767 27.302 L 125.608 29.517 C 124.588 30.842 123.495 31.805 122.305 32.406 C 121.115 33.008 119.755 33.321 118.201 33.321 C 115.627 33.321 113.538 32.551 111.935 31.01 C 110.332 29.445 109.555 27.423 109.555 24.895 C 109.555 22.367 110.478 19.502 112.299 17.6 C 114.145 15.698 116.477 14.735 119.294 14.735 C 122.111 14.735 123.544 15.457 124.928 16.926 C 126.337 18.37 127.041 20.32 127.041 22.752 C 127.041 25.184 127.041 23.233 126.992 23.546 C 126.992 23.859 126.944 24.245 126.92 24.702 L 113.635 24.702 C 113.635 26.267 114.024 27.519 114.825 28.458 C 115.627 29.373 116.671 29.83 118.007 29.83 C 119.342 29.83 119.804 29.614 120.605 29.18 C 121.455 28.723 122.16 28.097 122.742 27.302 Z M 122.985 21.909 C 122.961 20.754 122.572 19.815 121.892 19.165 C 121.212 18.49 120.289 18.153 119.124 18.153 C 117.958 18.153 116.671 18.49 115.772 19.165 C 114.849 19.839 114.266 20.754 114.024 21.909 Z M 80.29 15.336 L 84.273 15.336 L 87.09 24.148 L 87.163 24.365 C 87.503 25.448 87.697 26.243 87.722 26.773 C 87.867 26.363 88.037 25.93 88.232 25.448 C 88.45 24.967 88.717 24.461 89.033 23.932 L 94.886 14.036 L 97.728 24.221 C 97.849 24.606 97.922 24.991 97.995 25.376 C 98.068 25.786 98.14 26.243 98.189 26.749 C 98.383 26.243 98.553 25.786 98.748 25.376 C 98.942 24.967 99.136 24.606 99.306 24.293 L 104.576 15.288 L 109.069 15.288 L 97.266 33.634 L 94.328 23.98 C 94.206 23.619 94.109 23.258 94.036 22.896 C 93.963 22.463 93.89 22.006 93.842 21.572 L 93.113 23.017 C 92.895 23.426 92.749 23.715 92.628 23.884 L 86.702 33.634 L 80.266 15.288 Z M 72.349 35.464 L 69.41 32.093 C 68.366 32.503 67.37 32.792 66.398 32.984 C 65.451 33.177 64.504 33.297 63.533 33.297 C 59.428 33.297 56.174 32.142 53.77 29.806 C 51.365 27.471 50.151 24.317 50.151 20.344 C 50.151 16.372 50.54 16.155 51.317 14.277 C 52.07 12.399 53.187 10.762 54.644 9.366 C 56.028 8.041 57.631 7.03 59.428 6.332 C 61.25 5.634 63.193 5.297 65.257 5.297 C 69.288 5.297 72.519 6.476 74.947 8.836 C 77.376 11.195 78.59 14.325 78.59 18.25 C 78.59 22.174 78.104 22.896 77.133 24.967 C 76.161 27.037 74.777 28.747 72.956 30.143 L 77.449 35.44 L 72.421 35.44 Z M 68.196 24.678 L 70.309 27.134 C 71.62 26.074 72.616 24.774 73.296 23.258 C 74.024 21.717 74.364 20.079 74.364 18.37 C 74.364 15.577 73.49 13.338 71.766 11.653 C 70.041 9.943 67.783 9.077 64.941 9.077 C 62.1 9.077 62.197 9.342 60.958 9.847 C 59.695 10.353 58.603 11.099 57.655 12.062 C 56.587 13.146 55.761 14.398 55.178 15.818 C 54.595 17.214 54.304 18.683 54.304 20.2 C 54.304 22.945 55.154 25.184 56.83 26.941 C 58.53 28.699 60.667 29.565 63.29 29.565 C 65.913 29.565 64.383 29.517 64.966 29.445 C 65.548 29.349 66.156 29.228 66.811 29.036 L 63.144 24.678 Z" fill="rgb(255, 255, 255)"></path><path d="M 28.567 17.07 L 15.282 17.118 L 14.845 17.118 C 14.797 17.118 14.748 17.142 14.797 17.214 L 21.621 29.012 C 21.645 29.06 21.67 29.06 21.718 29.06 C 21.767 29.06 21.815 29.06 21.815 29.012 L 26.964 20.031 L 28.615 17.166 C 28.664 17.094 28.64 17.046 28.543 17.046 Z M 16.205 1.372 C 16.254 1.372 16.302 1.396 16.302 1.445 L 18.998 6.139 C 19.047 6.212 19.047 6.284 18.998 6.356 L 16.157 11.268 C 16.084 11.364 16.108 11.412 16.229 11.412 L 39.131 11.412 C 39.204 11.412 39.253 11.46 39.204 11.532 L 36.994 15.409 L 36.411 16.396 C 36.363 16.468 36.363 16.54 36.411 16.613 L 42.143 26.58 L 42.143 26.652 C 42.118 26.7 42.094 26.7 42.07 26.7 L 36.606 26.749 C 36.508 26.749 36.436 26.7 36.387 26.628 L 33.57 21.669 C 33.545 21.62 33.521 21.62 33.473 21.62 C 33.424 21.62 33.375 21.62 33.375 21.669 L 31.821 24.365 L 21.937 41.507 C 21.84 41.676 21.767 41.676 21.67 41.507 L 18.901 36.692 C 18.877 36.596 18.804 36.548 18.707 36.548 L 7.414 36.548 C 7.219 36.548 7.171 36.451 7.268 36.307 L 9.866 31.781 C 9.939 31.612 10.085 31.516 10.255 31.516 L 15.768 31.516 C 15.865 31.516 15.889 31.468 15.841 31.395 L 4.378 11.508 C 4.305 11.412 4.329 11.364 4.451 11.364 L 10.109 11.364 C 10.231 11.364 10.328 11.316 10.376 11.219 L 16.035 1.396 C 16.059 1.348 16.084 1.348 16.132 1.348 Z M 22.932 0.674 C 22.592 0.072 21.84 0 21.16 0 L 19.144 0.048 L 16.011 0.048 C 15.647 0.048 15.379 0.217 15.185 0.53 L 9.648 10.112 C 9.599 10.184 9.526 10.232 9.429 10.232 L 4.305 10.232 C 3.771 10.232 3.431 10.425 3.163 10.882 C 2.241 12.471 1.342 14.06 0.419 15.649 C -0.115 16.564 -0.091 16.926 0.225 17.527 L 1.779 20.248 C 2.993 22.391 4.232 24.51 5.471 26.652 C 5.544 26.773 5.544 26.917 5.471 27.038 L 3.091 31.179 C 2.896 31.54 2.896 31.877 3.091 32.238 L 6.248 37.655 C 6.734 37.824 7.268 37.872 7.826 37.824 L 17.929 37.824 C 18.002 37.824 18.075 37.848 18.099 37.92 L 20.747 42.47 C 20.965 42.831 21.257 43 21.67 43 L 27.62 43 C 28.3 43 28.713 42.856 29.053 42.278 C 30.85 39.196 32.623 36.114 34.395 33.008 C 34.444 32.96 34.493 32.912 34.565 32.912 C 36.096 32.888 37.626 32.864 39.156 32.888 C 39.787 32.888 40.176 32.695 40.491 32.166 C 41.39 30.649 42.264 29.132 43.139 27.591 C 43.43 27.038 43.551 26.652 43.211 26.074 L 37.966 16.998 C 37.601 16.54 37.82 16.372 38.038 15.987 L 38.767 14.686 C 39.253 13.82 39.763 12.977 40.273 12.134 C 40.71 11.436 40.588 11.147 40.224 10.497 L 37.358 5.465 C 37.116 5.032 36.824 4.815 36.484 4.815 L 25.531 4.815 C 25.385 4.815 25.288 4.767 25.215 4.647 C 24.462 3.274 23.685 1.926 22.908 0.578 Z" fill="rgb(255, 255, 255)"></path></g></svg>