<svg xmlns="http://www.w3.org/2000/svg" xmlns:xlink="http://www.w3.org/1999/xlink" viewBox="0 0 148.745 40" overflow="visible"><g><path d="M 15.824 0 C 7.121 0 0 7.121 0 15.824 C 0 24.527 7.121 31.648 15.824 31.648 C 24.527 31.648 31.648 24.571 31.648 15.824 C 31.648 7.077 24.571 0 15.824 0 Z M 15.824 25.978 C 10.418 25.978 6.066 21.538 6.066 15.824 C 6.066 10.11 10.418 5.67 15.824 5.67 C 21.231 5.67 25.582 10.11 25.582 15.824 C 25.582 21.538 21.231 25.978 15.824 25.978 Z M 47.648 8.791 C 44.791 8.791 42.022 9.934 40.571 11.868 L 40.571 9.231 L 34.857 9.231 L 34.857 40 L 40.571 40 L 40.571 28.879 C 42.022 30.681 44.703 31.648 47.648 31.648 C 53.802 31.648 58.637 26.813 58.637 20.22 C 58.637 13.626 53.802 8.791 47.648 8.791 Z M 46.681 26.681 C 43.428 26.681 40.527 24.132 40.527 20.22 C 40.527 16.308 43.428 13.758 46.681 13.758 C 49.934 13.758 52.835 16.308 52.835 20.22 C 52.835 24.132 49.934 26.681 46.681 26.681 Z M 72.088 8.791 C 65.846 8.791 60.923 13.67 60.923 20.22 C 60.923 26.769 65.231 31.648 72.264 31.648 C 78.022 31.648 81.715 28.176 82.857 24.264 L 77.275 24.264 C 76.572 25.89 74.594 27.033 72.22 27.033 C 69.275 27.033 67.033 24.967 66.506 22.022 L 83.121 22.022 L 83.121 19.78 C 83.121 13.802 78.945 8.791 72.088 8.791 Z M 66.55 17.978 C 67.165 15.209 69.451 13.407 72.22 13.407 C 75.165 13.407 77.407 15.341 77.671 17.978 Z M 98.33 8.791 C 95.78 8.791 93.099 9.934 91.868 11.824 L 91.868 9.231 L 86.154 9.231 L 86.154 31.209 L 91.868 31.209 L 91.868 19.385 C 91.868 15.956 93.714 13.714 96.703 13.714 C 99.472 13.714 100.966 15.824 100.966 18.769 L 100.966 31.209 L 106.681 31.209 L 106.681 17.846 C 106.681 12.396 103.34 8.791 98.33 8.791 Z M 121.317 0.44 L 108.877 31.21 L 114.987 31.21 L 117.624 24.484 L 131.779 24.484 L 134.416 31.21 L 140.613 31.21 L 128.262 0.44 Z M 119.602 19.385 L 124.701 6.506 L 129.756 19.385 Z M 148.745 0.44 L 142.943 0.44 L 142.943 31.21 L 148.745 31.21 Z" fill="rgb(255,255,255)"></path></g></svg>