<svg xmlns="http://www.w3.org/2000/svg" xmlns:xlink="http://www.w3.org/1999/xlink" viewBox="0 0 46 31" overflow="visible"><path d="M 13.219 0 C 16.89 0 19.958 1.806 23.627 6.541 L 24.167 5.818 C 24.531 5.342 24.901 4.881 25.279 4.443 L 25.879 3.765 C 27.96 1.527 30.268 0 33.015 0 C 35.454 0 37.747 1.079 39.706 2.937 L 40.124 3.35 C 43.439 6.77 45.714 12.476 45.975 18.9 L 45.996 19.66 L 46 20.144 C 46 23.052 45.463 25.49 44.432 27.313 L 44.164 27.759 L 43.957 28.055 C 43.405 28.846 42.696 29.512 41.875 30.01 L 41.367 30.285 L 41.201 30.363 C 41.011 30.448 40.818 30.524 40.622 30.591 C 39.8 30.866 38.939 31.002 38.073 30.994 C 37.068 30.994 36.164 30.864 35.317 30.578 C 34.14 30.182 33.087 29.493 32.008 28.415 L 31.573 27.96 C 30.13 26.387 28.633 24.132 26.795 21.012 L 24.054 16.343 L 23.012 14.609 L 19.627 20.673 L 18.969 21.82 C 14.561 29.365 11.935 31 8.349 31 C 6.03 31 4.123 30.186 2.722 28.71 L 2.4 28.353 C 1.472 27.243 0.795 25.813 0.401 24.112 L 0.272 23.492 C 0.124 22.668 0.037 21.834 0.012 20.997 L 0 20.282 C 0.004 18.838 0.115 17.395 0.333 15.961 L 0.525 14.851 C 1.096 11.887 2.112 9.12 3.469 6.797 L 3.87 6.138 C 6.126 2.592 9.215 0.223 12.715 0.016 Z M 13.156 5.067 L 12.771 5.086 C 11.18 5.247 9.693 6.39 8.454 8.141 L 8.19 8.527 L 8.171 8.562 C 6.887 10.532 5.899 13.169 5.38 16.011 L 5.372 16.054 C 5.111 17.495 4.978 18.956 4.976 20.421 L 4.979 20.785 C 4.987 21.134 5.012 21.483 5.056 21.832 L 5.139 22.396 C 5.315 23.37 5.631 24.155 6.07 24.736 L 6.294 25.001 C 6.875 25.627 7.632 25.955 8.537 25.955 C 10.645 25.955 11.979 24.645 15.621 18.9 L 19.79 12.313 L 20.66 10.955 L 20.393 10.571 C 17.461 6.394 15.494 5.068 13.156 5.068 Z M 32.698 3.997 L 32.361 4.011 C 31.144 4.104 30.017 4.706 28.873 5.818 L 28.497 6.202 C 27.656 7.097 26.797 8.263 25.877 9.703 L 26.387 10.474 C 26.732 11.005 27.081 11.559 27.441 12.136 L 28.002 13.057 L 30.678 17.581 L 32.01 19.739 C 33.128 21.533 33.984 22.839 34.709 23.773 L 35.117 24.281 C 35.658 24.912 36.131 25.327 36.606 25.585 L 36.802 25.682 C 37.237 25.875 37.678 25.949 38.178 25.949 C 38.515 25.953 38.849 25.904 39.171 25.807 C 39.819 25.606 40.34 25.187 40.729 24.573 L 40.911 24.257 L 41.059 23.944 C 41.431 23.054 41.615 21.89 41.615 20.485 L 41.603 19.615 C 41.45 14.053 39.805 9.207 37.386 6.444 L 37.049 6.078 C 35.765 4.755 34.281 3.997 32.698 3.997 Z" fill="rgb(255, 255, 255)"></path></svg>