<svg xmlns="http://www.w3.org/2000/svg" xmlns:xlink="http://www.w3.org/1999/xlink" viewBox="0 0 124 32" overflow="visible"><path d="M 26.751 27.2 C 23.943 30.192 20.249 31.69 15.672 31.69 C 11.29 31.69 7.583 30.165 4.55 27.114 C 1.517 24.064 0 20.309 0 15.846 C 0 11.384 1.517 7.627 4.55 4.578 C 7.583 1.525 11.29 0 15.672 0 C 17.891 0 19.983 0.395 21.95 1.186 C 23.915 1.978 25.53 3.093 26.794 4.533 L 24.013 7.33 C 23.086 6.2 21.886 5.317 20.411 4.682 C 18.912 4.041 17.3 3.716 15.672 3.728 C 12.386 3.728 9.605 4.872 7.33 7.16 C 5.084 9.477 3.96 12.371 3.96 15.845 C 3.96 19.318 5.084 22.213 7.33 24.53 C 9.605 26.818 12.386 27.962 15.672 27.962 C 18.676 27.962 21.177 27.114 23.171 25.421 C 25.164 23.725 26.317 21.395 26.625 18.429 L 15.672 18.429 L 15.672 14.786 L 30.291 14.786 C 30.431 15.577 30.501 16.339 30.501 17.073 C 30.501 17.073 30.501 17.073 30.501 17.074 C 30.501 21.311 29.251 24.687 26.751 27.2 Z M 42.667 9.661 C 45.76 9.661 48.22 10.668 50.05 12.678 C 51.878 14.69 52.794 17.507 52.794 21.13 L 52.751 21.558 L 36.369 21.558 C 36.426 23.613 37.106 25.267 38.411 26.522 C 39.715 27.778 41.276 28.405 43.092 28.405 C 45.587 28.405 47.546 27.15 48.964 24.638 L 52.454 26.35 C 51.563 28.071 50.214 29.509 48.559 30.502 C 46.902 31.501 45.022 32 42.923 32 C 39.86 32 37.334 30.944 35.348 28.832 C 33.362 26.722 32.37 24.054 32.37 20.83 C 32.37 17.635 33.334 14.974 35.264 12.85 C 37.192 10.724 39.66 9.661 42.666 9.661 Z M 38.774 14.626 C 37.709 15.538 37.009 16.765 36.667 18.306 L 48.625 18.306 C 48.513 16.85 47.923 15.645 46.859 14.69 C 45.794 13.733 44.37 13.256 42.583 13.256 C 41.108 13.256 39.837 13.712 38.774 14.626 Z M 59.213 31.248 L 55.31 31.248 L 55.31 10.344 L 59.043 10.344 L 59.043 13.245 L 59.213 13.245 C 59.808 12.221 60.719 11.368 61.949 10.685 C 63.18 10.002 64.404 9.661 65.62 9.661 C 67.146 9.661 68.491 10.016 69.65 10.728 C 70.787 11.413 71.678 12.444 72.195 13.672 C 73.92 10.998 76.311 9.661 79.365 9.661 C 81.77 9.661 83.622 10.4 84.923 11.88 C 86.225 13.358 86.875 15.464 86.875 18.194 L 86.875 31.25 L 82.972 31.25 L 82.972 18.792 C 82.972 16.829 82.617 15.413 81.91 14.546 C 81.204 13.678 80.015 13.245 78.347 13.245 C 76.848 13.245 75.589 13.885 74.572 15.165 C 73.554 16.445 73.044 17.952 73.044 19.686 L 73.044 31.25 L 69.141 31.25 L 69.141 18.792 C 69.141 16.829 68.787 15.413 68.079 14.546 C 67.373 13.678 66.186 13.245 64.517 13.245 C 63.017 13.245 61.758 13.885 60.741 15.165 C 59.723 16.445 59.213 17.952 59.213 19.686 Z M 95.243 3.088 C 95.243 3.856 94.973 4.512 94.436 5.053 C 93.923 5.584 93.216 5.878 92.48 5.866 C 91.717 5.866 91.065 5.594 90.526 5.053 C 89.999 4.538 89.707 3.827 89.719 3.088 C 89.719 2.318 89.989 1.664 90.526 1.122 C 91.039 0.591 91.746 0.296 92.482 0.309 C 93.245 0.309 93.897 0.581 94.437 1.122 C 94.974 1.662 95.243 2.318 95.243 3.086 Z M 95.068 10.309 L 95.068 31.25 L 90.526 31.25 L 90.526 10.309 Z M 124 3.088 C 124 3.856 123.73 4.512 123.192 5.053 C 122.68 5.584 121.972 5.878 121.237 5.866 C 120.474 5.866 119.822 5.594 119.283 5.053 C 118.756 4.538 118.464 3.827 118.476 3.088 C 118.476 2.318 118.746 1.664 119.283 1.122 C 119.796 0.591 120.503 0.296 121.239 0.309 C 122.002 0.309 122.653 0.581 123.194 1.122 C 123.731 1.662 124 2.318 124 3.086 Z M 123.825 10.309 L 123.825 31.25 L 119.283 31.25 L 119.283 10.309 Z M 97.844 10.344 L 101.578 10.344 L 101.578 13.245 L 101.748 13.245 C 102.341 12.221 103.254 11.368 104.484 10.685 C 105.656 10.018 106.978 9.665 108.324 9.661 C 110.869 9.661 112.827 10.394 114.199 11.858 C 115.571 13.323 116.256 15.406 116.256 18.109 L 116.256 31.25 L 112.354 31.25 L 112.354 18.365 C 112.269 14.952 110.557 13.245 107.22 13.245 C 105.666 13.245 104.364 13.877 103.317 15.144 C 102.271 16.408 101.748 17.923 101.748 19.688 L 101.748 31.25 L 97.844 31.25 Z" fill="rgb(255, 255, 255)"></path></svg>